<svg width="560" height="345" viewBox="0 0 560 345" fill="none" xmlns="http://www.w3.org/2000/svg">
<rect x="33" y="38.2847" width="494" height="275" fill="#333333"/>
<path d="M519.575 0H40.425C18.1125 0 0 18.1125 0 40.3375V304.15C0 326.463 18.1125 344.575 40.425 344.575H519.663C541.975 344.575 560.087 326.463 560.087 304.15V40.3375C560.087 18.1125 541.975 0 519.575 0ZM296.188 263.812H242.375V158.812L188.562 226.1L134.75 158.812V263.812H80.7625V80.7625H134.575L188.388 148.05L242.2 80.7625H296.012V263.812H296.188ZM414.575 266.525L333.812 172.287H387.625V80.7625H441.438V172.287H495.25L414.575 266.525Z" fill="#9EE792"/>
<path fill-rule="evenodd" clip-rule="evenodd" d="M414.61 71.9393C387.668 71.7796 365.384 93.8299 365.163 120.87C365.04 135.19 371.001 148.108 380.601 157.203C384.091 160.51 389.487 160.829 393.285 157.867C398.878 153.504 406.068 150.898 414.328 150.898C422.587 150.898 429.778 153.504 435.37 157.867C439.193 160.841 444.613 160.46 448.128 157.129C457.593 148.132 463.492 135.399 463.492 121.288C463.492 94.1372 441.626 72.0991 414.61 71.9393ZM414.328 145.957C399.738 145.957 389.745 134.968 389.745 121.374C389.745 107.78 399.738 96.6077 414.328 96.6077C428.917 96.6077 438.91 107.78 438.91 121.374C438.91 134.968 428.93 145.957 414.328 145.957Z" fill="white"/>
</svg>
